<?xml version="1.0" encoding="UTF-8"?>
<!DOCTYPE svg PUBLIC "-//W3C//DTD SVG 1.1//EN" "http://www.w3.org/Graphics/SVG/1.1/DTD/svg11.dtd">
<svg xmlns="http://www.w3.org/2000/svg" xmlns:xlink="http://www.w3.org/1999/xlink" version="1.1" width="546px" height="186px" viewBox="-0.5 -0.5 546 186" style="background-color: rgb(255, 255, 255);"><defs/><rect fill="#ffffff" width="100%" height="100%" x="0" y="0"/><g><g data-cell-id="0"><g data-cell-id="1"><g data-cell-id="d8lrYblVymRXTVbt59Zi-49"><g><ellipse cx="402" cy="142" rx="5" ry="5" fill="#f8cecc" stroke="#b85450" pointer-events="all"/></g></g><g data-cell-id="d8lrYblVymRXTVbt59Zi-52"><g><ellipse cx="403" cy="143" rx="5" ry="5" fill="#dae8fc" stroke="#6c8ebf" pointer-events="all"/></g></g><g data-cell-id="d8lrYblVymRXTVbt59Zi-1"><g><path d="M 7 167 L 250.63 167" fill="none" stroke="rgb(0, 0, 0)" stroke-miterlimit="10" pointer-events="stroke"/><path d="M 255.88 167 L 248.88 170.5 L 250.63 167 L 248.88 163.5 Z" fill="rgb(0, 0, 0)" stroke="rgb(0, 0, 0)" stroke-miterlimit="10" pointer-events="all"/></g></g><g data-cell-id="d8lrYblVymRXTVbt59Zi-2"><g><path d="M 17 177 L 17 13.37" fill="none" stroke="rgb(0, 0, 0)" stroke-miterlimit="10" pointer-events="stroke"/><path d="M 17 8.12 L 20.5 15.12 L 17 13.37 L 13.5 15.12 Z" fill="rgb(0, 0, 0)" stroke="rgb(0, 0, 0)" stroke-miterlimit="10" pointer-events="all"/></g></g><g data-cell-id="d8lrYblVymRXTVbt59Zi-3"><g><ellipse cx="52" cy="132" rx="5" ry="5" fill="#d5e8d4" stroke="#82b366" pointer-events="all"/></g></g><g data-cell-id="d8lrYblVymRXTVbt59Zi-4"><g><ellipse cx="202" cy="52" rx="5" ry="5" fill="#d5e8d4" stroke="#82b366" pointer-events="all"/></g></g><g data-cell-id="d8lrYblVymRXTVbt59Zi-5"><g><ellipse cx="222" cy="42" rx="5" ry="5" fill="#d5e8d4" stroke="#82b366" pointer-events="all"/></g></g><g data-cell-id="d8lrYblVymRXTVbt59Zi-6"><g><ellipse cx="82" cy="112" rx="5" ry="5" fill="#d5e8d4" stroke="#82b366" pointer-events="all"/></g></g><g data-cell-id="d8lrYblVymRXTVbt59Zi-7"><g><ellipse cx="32" cy="142" rx="5" ry="5" fill="#d5e8d4" stroke="#82b366" pointer-events="all"/></g></g><g data-cell-id="d8lrYblVymRXTVbt59Zi-8"><g><ellipse cx="52" cy="152" rx="5" ry="5" fill="#d5e8d4" stroke="#82b366" pointer-events="all"/></g></g><g data-cell-id="d8lrYblVymRXTVbt59Zi-9"><g><ellipse cx="62" cy="72" rx="5" ry="5" fill="#d5e8d4" stroke="#82b366" pointer-events="all"/></g></g><g data-cell-id="d8lrYblVymRXTVbt59Zi-10"><g><ellipse cx="142" cy="112" rx="5" ry="5" fill="#f8cecc" stroke="#b85450" pointer-events="all"/></g></g><g data-cell-id="d8lrYblVymRXTVbt59Zi-11"><g><ellipse cx="152" cy="52" rx="5" ry="5" fill="#d5e8d4" stroke="#82b366" pointer-events="all"/></g></g><g data-cell-id="d8lrYblVymRXTVbt59Zi-13"><g><ellipse cx="172" cy="42" rx="5" ry="5" fill="#d5e8d4" stroke="#82b366" pointer-events="all"/></g></g><g data-cell-id="d8lrYblVymRXTVbt59Zi-14"><g><ellipse cx="172" cy="102" rx="5" ry="5" fill="#f8cecc" stroke="#b85450" pointer-events="all"/></g></g><g data-cell-id="d8lrYblVymRXTVbt59Zi-15"><g><ellipse cx="122" cy="142" rx="5" ry="5" fill="#f8cecc" stroke="#b85450" pointer-events="all"/></g></g><g data-cell-id="d8lrYblVymRXTVbt59Zi-16"><g><ellipse cx="222" cy="82" rx="5" ry="5" fill="#d5e8d4" stroke="#82b366" pointer-events="all"/></g></g><g data-cell-id="d8lrYblVymRXTVbt59Zi-17"><g><ellipse cx="22" cy="152" rx="5" ry="5" fill="#d5e8d4" stroke="#82b366" pointer-events="all"/></g></g><g data-cell-id="d8lrYblVymRXTVbt59Zi-18"><g><ellipse cx="32" cy="122" rx="5" ry="5" fill="#d5e8d4" stroke="#82b366" pointer-events="all"/></g></g><g data-cell-id="d8lrYblVymRXTVbt59Zi-19"><g><ellipse cx="72" cy="42" rx="5" ry="5" fill="#d5e8d4" stroke="#82b366" pointer-events="all"/></g></g><g data-cell-id="d8lrYblVymRXTVbt59Zi-20"><g><ellipse cx="202" cy="132" rx="5" ry="5" fill="#f8cecc" stroke="#b85450" pointer-events="all"/></g></g><g data-cell-id="d8lrYblVymRXTVbt59Zi-21"><g><ellipse cx="122" cy="72" rx="5" ry="5" fill="#d5e8d4" stroke="#82b366" pointer-events="all"/></g></g><g data-cell-id="d8lrYblVymRXTVbt59Zi-22"><g><ellipse cx="142" cy="62" rx="5" ry="5" fill="#d5e8d4" stroke="#82b366" pointer-events="all"/></g></g><g data-cell-id="d8lrYblVymRXTVbt59Zi-23"><g><ellipse cx="252" cy="32" rx="5" ry="5" fill="#d5e8d4" stroke="#82b366" pointer-events="all"/></g></g><g data-cell-id="d8lrYblVymRXTVbt59Zi-24"><g><ellipse cx="252" cy="62" rx="5" ry="5" fill="#d5e8d4" stroke="#82b366" pointer-events="all"/></g></g><g data-cell-id="d8lrYblVymRXTVbt59Zi-25"><g><path d="M 287 167 L 530.63 167" fill="none" stroke="rgb(0, 0, 0)" stroke-miterlimit="10" pointer-events="stroke"/><path d="M 535.88 167 L 528.88 170.5 L 530.63 167 L 528.88 163.5 Z" fill="rgb(0, 0, 0)" stroke="rgb(0, 0, 0)" stroke-miterlimit="10" pointer-events="all"/></g></g><g data-cell-id="d8lrYblVymRXTVbt59Zi-26"><g><path d="M 297 177 L 297 13.37" fill="none" stroke="rgb(0, 0, 0)" stroke-miterlimit="10" pointer-events="stroke"/><path d="M 297 8.12 L 300.5 15.12 L 297 13.37 L 293.5 15.12 Z" fill="rgb(0, 0, 0)" stroke="rgb(0, 0, 0)" stroke-miterlimit="10" pointer-events="all"/></g></g><g data-cell-id="d8lrYblVymRXTVbt59Zi-27"><g><ellipse cx="332" cy="132" rx="5" ry="5" fill="#d5e8d4" stroke="#82b366" pointer-events="all"/></g></g><g data-cell-id="d8lrYblVymRXTVbt59Zi-28"><g><ellipse cx="482" cy="52" rx="5" ry="5" fill="#d5e8d4" stroke="#82b366" pointer-events="all"/></g></g><g data-cell-id="d8lrYblVymRXTVbt59Zi-29"><g><ellipse cx="502" cy="42" rx="5" ry="5" fill="#d5e8d4" stroke="#82b366" pointer-events="all"/></g></g><g data-cell-id="d8lrYblVymRXTVbt59Zi-30"><g><ellipse cx="362" cy="112" rx="5" ry="5" fill="#d5e8d4" stroke="#82b366" pointer-events="all"/></g></g><g data-cell-id="d8lrYblVymRXTVbt59Zi-31"><g><ellipse cx="312" cy="142" rx="5" ry="5" fill="#d5e8d4" stroke="#82b366" pointer-events="all"/></g></g><g data-cell-id="d8lrYblVymRXTVbt59Zi-32"><g><ellipse cx="332" cy="152" rx="5" ry="5" fill="#d5e8d4" stroke="#82b366" pointer-events="all"/></g></g><g data-cell-id="d8lrYblVymRXTVbt59Zi-33"><g><ellipse cx="342" cy="72" rx="5" ry="5" fill="#d5e8d4" stroke="#82b366" pointer-events="all"/></g></g><g data-cell-id="d8lrYblVymRXTVbt59Zi-34"><g><ellipse cx="422" cy="112" rx="5" ry="5" fill="#f8cecc" stroke="#b85450" pointer-events="all"/></g></g><g data-cell-id="d8lrYblVymRXTVbt59Zi-35"><g><ellipse cx="432" cy="52" rx="5" ry="5" fill="#d5e8d4" stroke="#82b366" pointer-events="all"/></g></g><g data-cell-id="d8lrYblVymRXTVbt59Zi-37"><g><ellipse cx="452" cy="42" rx="5" ry="5" fill="#d5e8d4" stroke="#82b366" pointer-events="all"/></g></g><g data-cell-id="d8lrYblVymRXTVbt59Zi-38"><g><ellipse cx="452" cy="102" rx="5" ry="5" fill="#f8cecc" stroke="#b85450" pointer-events="all"/></g></g><g data-cell-id="d8lrYblVymRXTVbt59Zi-40"><g><ellipse cx="502" cy="82" rx="5" ry="5" fill="#d5e8d4" stroke="#82b366" pointer-events="all"/></g></g><g data-cell-id="d8lrYblVymRXTVbt59Zi-41"><g><ellipse cx="302" cy="152" rx="5" ry="5" fill="#d5e8d4" stroke="#82b366" pointer-events="all"/></g></g><g data-cell-id="d8lrYblVymRXTVbt59Zi-42"><g><ellipse cx="312" cy="122" rx="5" ry="5" fill="#d5e8d4" stroke="#82b366" pointer-events="all"/></g></g><g data-cell-id="d8lrYblVymRXTVbt59Zi-43"><g><ellipse cx="352" cy="42" rx="5" ry="5" fill="#d5e8d4" stroke="#82b366" pointer-events="all"/></g></g><g data-cell-id="d8lrYblVymRXTVbt59Zi-44"><g><ellipse cx="482" cy="132" rx="5" ry="5" fill="#f8cecc" stroke="#b85450" pointer-events="all"/></g></g><g data-cell-id="d8lrYblVymRXTVbt59Zi-45"><g><ellipse cx="402" cy="72" rx="5" ry="5" fill="#d5e8d4" stroke="#82b366" pointer-events="all"/></g></g><g data-cell-id="d8lrYblVymRXTVbt59Zi-46"><g><ellipse cx="422" cy="62" rx="5" ry="5" fill="#d5e8d4" stroke="#82b366" pointer-events="all"/></g></g><g data-cell-id="d8lrYblVymRXTVbt59Zi-47"><g><ellipse cx="532" cy="32" rx="5" ry="5" fill="#d5e8d4" stroke="#82b366" pointer-events="all"/></g></g><g data-cell-id="d8lrYblVymRXTVbt59Zi-48"><g><ellipse cx="532" cy="62" rx="5" ry="5" fill="#d5e8d4" stroke="#82b366" pointer-events="all"/></g></g><g data-cell-id="d8lrYblVymRXTVbt59Zi-50"><g><ellipse cx="404" cy="144" rx="5" ry="5" fill="#dae8fc" stroke="#6c8ebf" pointer-events="all"/></g></g><g data-cell-id="d8lrYblVymRXTVbt59Zi-51"><g><ellipse cx="405" cy="145" rx="5" ry="5" fill="#dae8fc" stroke="#6c8ebf" pointer-events="all"/></g></g><g data-cell-id="d8lrYblVymRXTVbt59Zi-56"><g><ellipse cx="423" cy="113" rx="5" ry="5" fill="#dae8fc" stroke="#6c8ebf" pointer-events="all"/></g></g><g data-cell-id="d8lrYblVymRXTVbt59Zi-57"><g><ellipse cx="424" cy="114" rx="5" ry="5" fill="#dae8fc" stroke="#6c8ebf" pointer-events="all"/></g></g><g data-cell-id="d8lrYblVymRXTVbt59Zi-58"><g><ellipse cx="425" cy="115" rx="5" ry="5" fill="#dae8fc" stroke="#6c8ebf" pointer-events="all"/></g></g><g data-cell-id="d8lrYblVymRXTVbt59Zi-61"><g><ellipse cx="453" cy="103" rx="5" ry="5" fill="#dae8fc" stroke="#6c8ebf" pointer-events="all"/></g></g><g data-cell-id="d8lrYblVymRXTVbt59Zi-66"><g><ellipse cx="483" cy="133" rx="5" ry="5" fill="#dae8fc" stroke="#6c8ebf" pointer-events="all"/></g></g><g data-cell-id="d8lrYblVymRXTVbt59Zi-67"><g><ellipse cx="484" cy="134" rx="5" ry="5" fill="#dae8fc" stroke="#6c8ebf" pointer-events="all"/></g></g><g data-cell-id="TvSk4s56tLAgmXRLXx-0-1"><g><ellipse cx="522" cy="132" rx="5" ry="5" fill="#f8cecc" stroke="#b85450" pointer-events="all"/></g></g><g data-cell-id="TvSk4s56tLAgmXRLXx-0-2"><g><ellipse cx="523" cy="133" rx="5" ry="5" fill="#dae8fc" stroke="#6c8ebf" pointer-events="all"/></g></g><g data-cell-id="TvSk4s56tLAgmXRLXx-0-3"><g><ellipse cx="524" cy="134" rx="5" ry="5" fill="#dae8fc" stroke="#6c8ebf" pointer-events="all"/></g></g><g data-cell-id="TvSk4s56tLAgmXRLXx-0-4"><g><ellipse cx="525" cy="135" rx="5" ry="5" fill="#dae8fc" stroke="#6c8ebf" pointer-events="all"/></g></g><g data-cell-id="rZMvSdfBBotH_4es5bkR-1"><g><ellipse cx="242" cy="132" rx="5" ry="5" fill="#f8cecc" stroke="#b85450" pointer-events="all"/></g></g></g></g></g></svg>